<svg xmlns="http://www.w3.org/2000/svg" width="1599.7" height="231.3" viewBox="0 0 1599.7 231.3"><title>logo-shopify-analyzer</title><path d="M1136.35,610.48A20.52,20.52,0,1,1,1115.83,631a20.51,20.51,0,0,1,20.52-20.51Zm86-59-12.74,8.14L1175,581.75l-24.56,15.69-9.6,6.14a27.8,27.8,0,0,1,23.22,25.56l7-9.4,17.5-23.31,24.65-32.84Z" transform="translate(-398.82 -539.42)" fill="#50d366" fill-rule="evenodd"/><path d="M1144.48,551.41a88.68,88.68,0,0,0-23.64.14l-4.38-12.13-8.13,2.18-8.14,2.17,2.22,12.44a87.44,87.44,0,0,0-23,12.81l-9.31-7.84-6,6-5.95,6,7.61,9a87.57,87.57,0,0,0-14,23.07l-11-2-2.18,8.13-2.18,8.13,10.14,3.67a88.52,88.52,0,0,0-.54,27.66l-9.6,3.47,2.18,8.13,2.18,8.13,9.7-1.73a87.54,87.54,0,0,0,13.79,24.64l-6.09,7.23,5.95,6,6,6,7.11-6A87.41,87.41,0,0,0,1101.81,721l-1.62,9,8.14,2.18,8.13,2.17,3.14-8.68a88.68,88.68,0,0,0,28.44-.22l3.22,8.9,8.13-2.17,8.13-2.18-1.7-9.54a87.33,87.33,0,0,0,24-14.43l7.79,6.57,5.95-6,6-6-6.81-8.08a87.26,87.26,0,0,0,13.22-24l11,2,2.18-8.13,2.18-8.13-10.91-3.94a88.75,88.75,0,0,0-1.15-30,83.88,83.88,0,0,1,.26,18.06c.13-1.59.21-3.18.25-4.77a78.39,78.39,0,0,1-17.53,46q-1.54,1.9-3.23,3.73a78.69,78.69,0,1,1-70-131.11c-1.71.23-3.41.5-5.11.84A83.9,83.9,0,0,1,1144.48,551.41Z" transform="translate(-398.82 -539.42)" fill="#50d366" fill-rule="evenodd"/><path d="M1070.6,644.7a72.56,72.56,0,0,1,110.4-76l-2.18,1.51-8.29,5.74-5.09,3.52h0a64.88,64.88,0,0,0-95.11,62.69c0-.14,0-.29,0-.43.09,1,.19,2,.32,3Zm121.05-39.53a64.87,64.87,0,0,1-56.54,96.43l.4,0c-1.09,0-2.18,0-3.28-.08a72.56,72.56,0,0,0,70-111.67l-3.48,5-3.67,5.28-1.82,2.63Z" transform="translate(-398.82 -539.42)" fill="#333" fill-rule="evenodd"/><path d="M398.82,670.92l16.5-17c9,8.31,18.35,12.54,28.51,12.54,6.07,0,10.43-2.64,10.43-6.87,0-3.56-2.51-5.41-15.45-10.42-14.65-5.55-24-11.88-24-25.48,0-18.35,16.63-31.42,39.2-31.42,16.24,0,29.05,5.28,37.89,13.73L476,623.66c-7-6.07-15.05-10.16-24.42-10.16-6.21,0-10,2.9-10,6.6s2.77,5,15.44,10c14.26,5.41,24,11.88,24,25.74,0,19-16.37,31.94-39.34,31.94C423.63,687.81,408.72,681.61,398.82,670.92Z" transform="translate(-398.82 -539.42)"/><path d="M510.22,593.83H536l-9.38,34.58H559.2l9.24-34.58h25.74l-24.82,92.4H543.62l9.51-35.11H520.52l-9.37,35.11H485.41Z" transform="translate(-398.82 -539.42)"/><path d="M593.78,646.5a54.86,54.86,0,0,1,55-54.39c26.27,0,44.09,17.95,44.09,41.45a54.86,54.86,0,0,1-55,54.39C611.6,688,593.78,670,593.78,646.5Zm73-11c0-11.75-7.13-20.46-20.2-20.46-16.1,0-26.66,15.71-26.66,29.44,0,11.74,7.12,20.46,20.19,20.46C656.35,665,666.78,649.27,666.78,635.54Z" transform="translate(-398.82 -539.42)"/><path d="M717.46,593.83h30.23c15,0,24.95,3,31.68,9.77,4.88,4.88,7.26,11.22,7.26,18.87,0,23-18.61,37.23-45.94,37.23H725.51l-7.12,26.53H692.64Zm23,45.93c12.67,0,19.93-5.67,19.93-14.38a8.94,8.94,0,0,0-2.64-6.47c-2.51-2.51-6.2-3.57-11-3.57h-9.51l-6.47,24.42Z" transform="translate(-398.82 -539.42)"/><path d="M806.82,593.83h25.61l-24.81,92.4H782Z" transform="translate(-398.82 -539.42)"/><path d="M849.06,593.83H923l-6.08,22.44H868.73L864.51,632h43.56l-5.68,21.25H858.83l-8.84,33H824.25Z" transform="translate(-398.82 -539.42)"/><path d="M942.52,650.46l-18.61-56.63H951.5l9.1,34.58,27.86-34.58h30.62l-51.61,59.4-8.85,33H932.88Z" transform="translate(-398.82 -539.42)"/><path d="M1315.16,593.17h25.08l14.39,93.06H1327.7l-2.25-16.5h-35.64l-11.09,16.5h-27.85Zm8.18,56.63-3.3-26.54-17.29,26.54Z" transform="translate(-398.82 -539.42)" fill="#57d16c"/><path d="M1386.17,593.83h23.89l23.9,51.35,13.86-51.35h25.47l-24.81,92.4H1426l-25-53.2-14.26,53.2h-25.47Z" transform="translate(-398.82 -539.42)" fill="#57d16c"/><path d="M1520.55,593.17h25.08L1560,686.23h-26.93l-2.25-16.5H1495.2l-11.08,16.5h-27.86Zm8.18,56.63-3.3-26.54-17.29,26.54Z" transform="translate(-398.82 -539.42)" fill="#57d16c"/><path d="M1591.56,593.83h25.74l-18.74,70h44.09l-6.07,22.44h-69.83Z" transform="translate(-398.82 -539.42)" fill="#57d16c"/><path d="M1665.88,650.46l-18.61-56.63h27.58l9.11,34.58,27.86-34.58h30.62l-51.61,59.4-8.85,33h-25.74Z" transform="translate(-398.82 -539.42)" fill="#57d16c"/><path d="M1723.43,667.62l58.87-52.14H1739l6-21.65h78.54l-5,18.61-58.87,52.14h45l-5.81,21.65h-80.26Z" transform="translate(-398.82 -539.42)" fill="#57d16c"/><path d="M1836.42,593.83h74.06l-5.94,21.78H1856l-3.83,14h44.09l-5.41,20.2h-44.09l-4,14.65h49.37l-5.81,21.78H1811.6Z" transform="translate(-398.82 -539.42)" fill="#57d16c"/><path d="M1924.73,593.83h34.85c15.44,0,25.61,3.43,31.81,9.63,4.88,4.89,7.13,11.49,7.13,18.88,0,15.44-8.85,27.59-27.72,32.74l14.25,31.15H1956.8l-12.27-28h-11.35l-7.53,28h-25.74Zm28.38,44.35c11.48,0,19-4.88,19-12.8a8.67,8.67,0,0,0-2.38-6.21c-2.11-2.11-5.94-3.17-11.35-3.17h-13.86l-6.07,22.18Z" transform="translate(-398.82 -539.42)" fill="#57d16c"/><path d="M1681,728.91a27.71,27.71,0,0,1-1.68,6.85,20.5,20.5,0,0,1-19.09,27.61l4.67-7.76a15.57,15.57,0,0,1-4.48-.56l-7.25,12A25.16,25.16,0,0,0,1681,728.91Z" transform="translate(-398.82 -539.42)" fill="#333"/><path d="M1646.5,744.52l-4.68,7.76a20.51,20.51,0,0,1,15.48-29.79,28.45,28.45,0,0,1,5.27-4.69h0a25.18,25.18,0,0,0-20.74,42.46l7.25-12A16.1,16.1,0,0,1,1646.5,744.52Z" transform="translate(-398.82 -539.42)" fill="#333"/><path d="M1656.16,730.8a15.24,15.24,0,0,0-9.47,6.93l6.46,1.61s-.28,1.25-.35,2a13.7,13.7,0,0,0,0,2.36,36.32,36.32,0,0,1,4.58,2.26,37.29,37.29,0,0,1,5.22,3.65,13.54,13.54,0,0,0,2.11-1.07,19.9,19.9,0,0,0,1.62-1.25l4.44,5a16.49,16.49,0,0,0,2-6.46,16.21,16.21,0,0,0-.32-5.15,24.71,24.71,0,0,0,4.43-9.49c.1-.43.19-.86.26-1.31a11.7,11.7,0,0,0,.21-1.36,23.25,23.25,0,0,0,.15-3.77,25.08,25.08,0,0,0-1.69-8.17,25.23,25.23,0,0,0-8,2.34c-.56.26-1.12.56-1.68.89s-1,.63-1.58,1a6.65,6.65,0,0,0-.67.47A24.87,24.87,0,0,0,1656.16,730.8Zm9.34,5.6a3.5,3.5,0,0,0-.36-.49,9.26,9.26,0,0,0-.65-.68,15.92,15.92,0,0,1-1.15-1.21,4.64,4.64,0,0,1-.79-1.19,2.8,2.8,0,0,1-.26-1.26,2.74,2.74,0,0,1,.45-1.36l0,0a3.32,3.32,0,0,1,1-1,3.06,3.06,0,0,1,1.29-.52,4,4,0,0,1,1.5.07l.25.07.81-1.35,2.62,1.57-.79,1.31a6.27,6.27,0,0,1,1.82,2.63l-2.39,1.05a6.33,6.33,0,0,0-.89-1.47,4.73,4.73,0,0,0-1.16-1,1.36,1.36,0,0,0-.8-.25.6.6,0,0,0-.49.29v0a.6.6,0,0,0-.1.33.76.76,0,0,0,.12.37,3.13,3.13,0,0,0,.38.49,7.93,7.93,0,0,0,.66.68,15.26,15.26,0,0,1,1.2,1.27,5.14,5.14,0,0,1,.75,1.23,2.61,2.61,0,0,1,.21,1.22,2.83,2.83,0,0,1-.43,1.26l0,0a3.48,3.48,0,0,1-1,1.11,3.29,3.29,0,0,1-1.33.49,4.17,4.17,0,0,1-1.55-.12,4.69,4.69,0,0,1-.6-.2L1663,741l-2.61-1.58.82-1.36a8.18,8.18,0,0,1-.64-.68,6.63,6.63,0,0,1-1.28-2.36l2.47-.85a5.52,5.52,0,0,0,2.34,2.93,1.79,1.79,0,0,0,.89.31.61.61,0,0,0,.56-.31v0a.58.58,0,0,0,.09-.3A.93.93,0,0,0,1665.5,736.4Z" transform="translate(-398.82 -539.42)" fill="#57d16c"/><path d="M1652.71,745.34a5.06,5.06,0,0,0-.58,3.79,5,5,0,0,0,9.15,1.38l-1.9-1.15a2.78,2.78,0,0,1-4.77-2.87Z" transform="translate(-398.82 -539.42)" fill="#57d16c"/><path d="M1653.36,753.92a7.28,7.28,0,0,1-1.81-1.54l-8.88,14.74a2.37,2.37,0,1,0,4,2.45l8.88-14.75A7.34,7.34,0,0,1,1653.36,753.92Z" transform="translate(-398.82 -539.42)" fill="#57d16c"/><path d="M1707,757.63a22.27,22.27,0,0,1-8.5-1.54,17.71,17.71,0,0,1-6.39-4.32l5.73-5.91q4.71,4.35,9.89,4.35a4.76,4.76,0,0,0,2.61-.64,2,2,0,0,0,1-1.74,1.76,1.76,0,0,0-.21-.85,2.21,2.21,0,0,0-.8-.78,14,14,0,0,0-1.62-.87c-.69-.32-1.6-.69-2.73-1.12a32.42,32.42,0,0,1-3.46-1.54,11.21,11.21,0,0,1-2.61-1.83,7.36,7.36,0,0,1-1.67-2.36,7.47,7.47,0,0,1-.59-3.11,9.5,9.5,0,0,1,1-4.4,10.35,10.35,0,0,1,2.84-3.45,13.12,13.12,0,0,1,4.3-2.25,17.77,17.77,0,0,1,5.43-.8,20.63,20.63,0,0,1,7.53,1.28,17.29,17.29,0,0,1,5.61,3.48l-5.49,6.14a16.56,16.56,0,0,0-3.92-2.57,10.77,10.77,0,0,0-4.56-1,4.27,4.27,0,0,0-2.54.67,2,2,0,0,0-.94,1.62,1.52,1.52,0,0,0,.23.85,2.61,2.61,0,0,0,.8.71,11,11,0,0,0,1.63.82c.7.31,1.6.68,2.7,1.1a30.17,30.17,0,0,1,3.37,1.51,12.31,12.31,0,0,1,2.63,1.86,7.49,7.49,0,0,1,1.72,2.41,7.6,7.6,0,0,1,.62,3.15,10.1,10.1,0,0,1-1,4.52,10.34,10.34,0,0,1-2.82,3.5,13.11,13.11,0,0,1-4.33,2.27A18.16,18.16,0,0,1,1707,757.63Z" transform="translate(-398.82 -539.42)" fill="#57d16c"/><path d="M1728.42,732.3h8.7l-.73,2.61a11.72,11.72,0,0,1,3.22-2.31,8.7,8.7,0,0,1,3.83-.85,8.55,8.55,0,0,1,3.43.69,8.11,8.11,0,0,1,2.8,2,9.55,9.55,0,0,1,1.88,3.21,12.69,12.69,0,0,1,.68,4.28,17.59,17.59,0,0,1-1.07,6.2,16.33,16.33,0,0,1-2.91,5,13.8,13.8,0,0,1-4.26,3.32,11.33,11.33,0,0,1-5.08,1.21,8.72,8.72,0,0,1-4.58-1.09,9.24,9.24,0,0,1-2.94-2.83l-2.88,10.7h-8.7Zm9,18.14a5.23,5.23,0,0,0,2.34-.55,6.24,6.24,0,0,0,1.92-1.52,7.39,7.39,0,0,0,1.31-2.28,8,8,0,0,0,.48-2.78,4.37,4.37,0,0,0-1.15-3.2,4.08,4.08,0,0,0-3.06-1.17,5,5,0,0,0-2.36.58,6.38,6.38,0,0,0-2,1.54,7,7,0,0,0-1.33,2.25,7.69,7.69,0,0,0-.48,2.71,4.36,4.36,0,0,0,1.19,3.22A4.18,4.18,0,0,0,1737.39,750.44Z" transform="translate(-398.82 -539.42)" fill="#57d16c"/><path d="M1762.81,747.09a4.43,4.43,0,0,0,1.26,3,4.61,4.61,0,0,0,3.37,1.1,7.45,7.45,0,0,0,2.59-.46,10.71,10.71,0,0,0,2.68-1.51l4,4.76a16.3,16.3,0,0,1-4.4,2.68,16.35,16.35,0,0,1-10.67.26,10.14,10.14,0,0,1-3.71-2.23,9.86,9.86,0,0,1-2.34-3.45,11.92,11.92,0,0,1-.82-4.54,15,15,0,0,1,8.7-13.62,14.22,14.22,0,0,1,6.18-1.31,11.92,11.92,0,0,1,4.74.85,8.92,8.92,0,0,1,5.18,5.54,12.25,12.25,0,0,1,.62,3.87,14.29,14.29,0,0,1-.25,2.59,15.23,15.23,0,0,1-.71,2.49Zm9.44-4.44a4.28,4.28,0,0,0,.23-1.33,3.05,3.05,0,0,0-3.39-3.16,5.64,5.64,0,0,0-3.32,1.13,6.58,6.58,0,0,0-2.36,3.36Z" transform="translate(-398.82 -539.42)" fill="#57d16c"/><path d="M1790.34,747.09a4.43,4.43,0,0,0,1.26,3,4.6,4.6,0,0,0,3.36,1.1,7.41,7.41,0,0,0,2.59-.46,10.54,10.54,0,0,0,2.68-1.51l4,4.76a16.25,16.25,0,0,1-4.39,2.68,16.38,16.38,0,0,1-10.68.26,10.22,10.22,0,0,1-3.71-2.23,10,10,0,0,1-2.33-3.45,11.92,11.92,0,0,1-.83-4.54,15.1,15.1,0,0,1,1-5.42,14.79,14.79,0,0,1,3-4.79,15,15,0,0,1,4.7-3.41,14.22,14.22,0,0,1,6.18-1.31,12,12,0,0,1,4.74.85,8.94,8.94,0,0,1,5.17,5.54,12,12,0,0,1,.62,3.87,13.44,13.44,0,0,1-.25,2.59,14.3,14.3,0,0,1-.71,2.49Zm9.43-4.44a4,4,0,0,0,.23-1.33,3,3,0,0,0-3.39-3.16,5.66,5.66,0,0,0-3.32,1.13,6.64,6.64,0,0,0-2.36,3.36Z" transform="translate(-398.82 -539.42)" fill="#57d16c"/><path d="M1818.64,757.63a8.58,8.58,0,0,1-3.43-.69,8,8,0,0,1-2.79-2,9.44,9.44,0,0,1-1.88-3.18,12.49,12.49,0,0,1-.69-4.31,17.37,17.37,0,0,1,1.08-6.2,15.94,15.94,0,0,1,2.91-5,13.88,13.88,0,0,1,4.25-3.32,11.37,11.37,0,0,1,5.09-1.21,8.75,8.75,0,0,1,4.58,1.09,9.21,9.21,0,0,1,2.93,2.83l3.21-12h8.7l-8.93,33.43H1825l.74-2.61a12.77,12.77,0,0,1-3.23,2.29A8.54,8.54,0,0,1,1818.64,757.63Zm4.22-7.19a5.05,5.05,0,0,0,2.36-.58,6.62,6.62,0,0,0,2-1.54,7.18,7.18,0,0,0,1.32-2.25,7.69,7.69,0,0,0,.48-2.71,4.34,4.34,0,0,0-1.19-3.22,4.18,4.18,0,0,0-3.11-1.2,5.29,5.29,0,0,0-2.34.55,6.24,6.24,0,0,0-1.92,1.52,7.6,7.6,0,0,0-1.31,2.28,8,8,0,0,0-.48,2.78,4.42,4.42,0,0,0,1.15,3.2A4.08,4.08,0,0,0,1822.86,750.44Z" transform="translate(-398.82 -539.42)" fill="#57d16c"/><path d="M1849.07,725h13.33a21,21,0,0,1,5.51.62,9.86,9.86,0,0,1,3.58,1.69,6.1,6.1,0,0,1,1.92,2.48,8,8,0,0,1-1.33,8.12,10,10,0,0,1-5.29,3,8.18,8.18,0,0,1,3.51,2.36,6,6,0,0,1,1.35,4.05,8.66,8.66,0,0,1-.87,3.85,8.34,8.34,0,0,1-2.68,3.09,14.15,14.15,0,0,1-4.56,2.06,24.21,24.21,0,0,1-6.46.76h-16.62Zm8.7,24.87a6.18,6.18,0,0,0,3.64-.93,2.86,2.86,0,0,0,1.31-2.43c0-1.67-1.32-2.5-3.94-2.5h-6.14l-1.6,5.86Zm2.56-12.09a6.26,6.26,0,0,0,3.62-.87,2.71,2.71,0,0,0,1.24-2.36,2,2,0,0,0-.89-1.72,5.2,5.2,0,0,0-3-.64h-5.54l-1.47,5.59Z" transform="translate(-398.82 -539.42)" fill="#333"/><path d="M1887.22,757.67a13.5,13.5,0,0,1-5.08-.89,11.3,11.3,0,0,1-3.83-2.43,10.14,10.14,0,0,1-2.4-3.64,12.43,12.43,0,0,1-.83-4.58,13.83,13.83,0,0,1,1.1-5.4,14.38,14.38,0,0,1,3.07-4.6,15.12,15.12,0,0,1,4.63-3.19,14.8,14.8,0,0,1,10.87-.3,11.51,11.51,0,0,1,3.85,2.43,10.23,10.23,0,0,1,2.4,3.64,12.37,12.37,0,0,1,.83,4.54,13.59,13.59,0,0,1-1.12,5.42,15.42,15.42,0,0,1-3.07,4.61,14.58,14.58,0,0,1-4.63,3.2A14,14,0,0,1,1887.22,757.67Zm.51-7.19a4.53,4.53,0,0,0,2.34-.62,6.05,6.05,0,0,0,1.81-1.61,7.93,7.93,0,0,0,1.57-4.69,4.72,4.72,0,0,0-1.18-3.37,4.08,4.08,0,0,0-3.09-1.25,4.54,4.54,0,0,0-2.34.63,6.05,6.05,0,0,0-1.81,1.61,7.94,7.94,0,0,0-1.57,4.64,4.8,4.8,0,0,0,1.18,3.42A4.07,4.07,0,0,0,1887.73,750.48Z" transform="translate(-398.82 -539.42)" fill="#333"/><path d="M1916.71,757.67a13.57,13.57,0,0,1-5.08-.89,11.26,11.26,0,0,1-3.82-2.43,10,10,0,0,1-2.41-3.64,12.43,12.43,0,0,1-.82-4.58,13.65,13.65,0,0,1,1.1-5.4,14.22,14.22,0,0,1,3.07-4.6,15.19,15.19,0,0,1,4.62-3.19,14.83,14.83,0,0,1,10.88-.3,11.71,11.71,0,0,1,3.85,2.43,10.23,10.23,0,0,1,2.4,3.64,12.37,12.37,0,0,1,.83,4.54,13.43,13.43,0,0,1-1.13,5.42,15.42,15.42,0,0,1-3.07,4.61,14.53,14.53,0,0,1-4.62,3.2A14,14,0,0,1,1916.71,757.67Zm.51-7.19a4.5,4.5,0,0,0,2.34-.62,6.09,6.09,0,0,0,1.82-1.61,7.81,7.81,0,0,0,1.15-2.22,7.57,7.57,0,0,0,.41-2.47,4.68,4.68,0,0,0-1.18-3.37,4,4,0,0,0-3.08-1.25,4.51,4.51,0,0,0-2.34.63,5.94,5.94,0,0,0-1.81,1.61,7.94,7.94,0,0,0-1.57,4.64,4.76,4.76,0,0,0,1.18,3.42A4,4,0,0,0,1917.22,750.48Z" transform="translate(-398.82 -539.42)" fill="#333"/><path d="M1943.23,757.67a20.11,20.11,0,0,1-6.78-1.14,16.32,16.32,0,0,1-5.45-3.16l4.31-5.08a13,13,0,0,0,4.08,2.47,11.79,11.79,0,0,0,4.16.87,2.74,2.74,0,0,0,1.65-.41,1.3,1.3,0,0,0,.55-1.1A1.35,1.35,0,0,0,1945,749a17.69,17.69,0,0,0-2.61-1.22c-1-.4-1.89-.81-2.75-1.24a10,10,0,0,1-2.22-1.48,6.4,6.4,0,0,1-1.46-1.95,5.88,5.88,0,0,1-.53-2.56,8.45,8.45,0,0,1,.73-3.46,7.83,7.83,0,0,1,2.11-2.8,10.39,10.39,0,0,1,3.39-1.85,14.09,14.09,0,0,1,4.58-.69,17.67,17.67,0,0,1,6.21,1,16.59,16.59,0,0,1,4.51,2.43l-4.17,5.22a15.2,15.2,0,0,0-3.46-1.92,9.63,9.63,0,0,0-3.55-.73c-1.43,0-2.15.47-2.15,1.42a1.31,1.31,0,0,0,.76,1.1,21.84,21.84,0,0,0,2.67,1.23c.89.37,1.75.76,2.59,1.17a10.35,10.35,0,0,1,2.22,1.44,6.34,6.34,0,0,1,1.54,2,5.86,5.86,0,0,1,.57,2.68,8.83,8.83,0,0,1-.66,3.39,8.1,8.1,0,0,1-2,2.84,9.8,9.8,0,0,1-3.37,2A14.12,14.12,0,0,1,1943.23,757.67Z" transform="translate(-398.82 -539.42)" fill="#333"/><path d="M1965.9,757.58c-2.53,0-4.42-.52-5.65-1.56a5.29,5.29,0,0,1-1.86-4.3,10.25,10.25,0,0,1,.12-1.56,16.3,16.3,0,0,1,.34-1.69l2.47-9.16h-2.93l1.88-7h2.93l1.7-6.27h8.7l-1.7,6.27h5.77l-1.87,7H1970l-2.11,7.78a7.86,7.86,0,0,0-.23,1.52c0,1,.66,1.55,2,1.55a10.35,10.35,0,0,0,3.3-.68l-1.93,7.23a15.13,15.13,0,0,1-2.49.64A14.56,14.56,0,0,1,1965.9,757.58Z" transform="translate(-398.82 -539.42)" fill="#333"/><path d="M1981.47,732.3h8.71l-1.33,5a14.64,14.64,0,0,1,4-4.14,8.18,8.18,0,0,1,5.27-1.26l-2.48,9.16h-.73a8.52,8.52,0,0,0-5.88,2.06,12.9,12.9,0,0,0-3.51,6.5l-2,7.47h-8.71Z" transform="translate(-398.82 -539.42)" fill="#333"/><path d="M1592.53,754.66l-.6,2.22h-5.7l5.85-21.9h5.7l-2,7.38a6.6,6.6,0,0,1,4.62-2.07c3.21,0,5.76,2.46,5.76,6.66,0,5.82-4.08,10.29-8.73,10.29A5.44,5.44,0,0,1,1592.53,754.66Zm7.89-6.81a2.64,2.64,0,0,0-2.76-2.85c-2.19,0-4,2.16-4,4.62a2.71,2.71,0,0,0,2.82,2.88C1598.59,752.5,1600.42,750.43,1600.42,747.85Z" transform="translate(-398.82 -539.42)"/><path d="M1604.11,760.6l2.55-4.17a3.91,3.91,0,0,0,2.25.81,1.76,1.76,0,0,0,1.41-.6l-2.1-16H1614l.66,9.75,5.46-9.75h6l-10.05,16.14c-2.34,3.66-4.47,5-7.65,5A7.53,7.53,0,0,1,1604.11,760.6Z" transform="translate(-398.82 -539.42)"/></svg>